{
  "asset": {
    "version": "2.0",
    "generator": "THREE.GLTFExporter"
  },
  "scenes": [
    {
      "nodes": [
        0
      ]
    }
  ],
  "scene": 0,
  "nodes": [
    {
      "children": [
        10
      ],
      "matrix": [
        0.01,
        0,
        0,
        0,
        0,
        0.01,
        0,
        0,
        0,
        0,
        0.01,
        0,
        0,
        0,
        0,
        1
      ]
    },
    {
      "name": "body_3",
      "mesh": 0
    },
    {
      "name": "shoes_l_Shape",
      "mesh": 1
    },
    {
      "name": "shoes_r_Shape",
      "mesh": 2
    },
    {
      "name": "tshirt",
      "mesh": 3
    },
    {
      "matrix": [
        0.0010000000474974513,
        0,
        0,
        0,
        0,
        -1.3435884488114003e-10,
        0.0010000000474974424,
        0,
        0,
        -0.0010000000474974424,
        -1.3435884488114003e-10,
        0,
        0,
        0,
        0,
        1
      ],
      "name": "Default",
      "children": [
        1,
        2,
        3,
        4
      ]
    },
    {
      "matrix": [
        135.11,
        0,
        0,
        0,
        0,
        135.10999999999993,
        0,
        0,
        0,
        0,
        135.10999999999993,
        0,
        0,
        -115.72517108716329,
        0,
        1
      ],
      "name": "tshirt14",
      "children": [
        5
      ]
    },
    {
      "matrix": [
        0.5883484054145521,
        0.39223227027636803,
        -0.7071067811865475,
        0,
        -0.554700196225229,
        0.8320502943378437,
        0,
        0,
        0.588348405414552,
        0.392232270276368,
        0.7071067811865476,
        0,
        0,
        0,
        0,
        1
      ],
      "name": "Directional Light",
      "extensions": {
        "KHR_lights_punctual": {
          "light": 0
        }
      }
    },
    {
      "matrix": [
        0.9996374364365985,
        -1.42498798837154e-8,
        0.02692574371238882,
        0,
        0.007873352371542373,
        0.9562932511488128,
        -0.2923033152902431,
        0,
        -0.025748902829032878,
        0.29240933262677093,
        0.9559465341722138,
        0,
        -17.365273854199586,
        290.64663616971103,
        954.1016095033199,
        1
      ],
      "camera": 0
    },
    {
      "matrix": [
        1,
        0,
        0,
        0,
        0,
        1,
        0,
        0,
        0,
        0,
        1,
        0,
        0,
        1,
        0,
        1
      ],
      "name": "Default Ambient Light"
    },
    {
      "name": "Scene 1",
      "children": [
        6,
        7,
        8,
        9
      ]
    }
  ],
  "bufferViews": [
    {
      "buffer": 0,
      "byteOffset": 0,
      "byteLength": 126912,
      "target": 34962,
      "byteStride": 12
    },
    {
      "buffer": 0,
      "byteOffset": 126912,
      "byteLength": 126912,
      "target": 34962,
      "byteStride": 12
    },
    {
      "buffer": 0,
      "byteOffset": 253824,
      "byteLength": 125052,
      "target": 34963
    },
    {
      "buffer": 0,
      "byteOffset": 378876,
      "byteLength": 66888,
      "target": 34962,
      "byteStride": 12
    },
    {
      "buffer": 0,
      "byteOffset": 445764,
      "byteLength": 44592,
      "target": 34962,
      "byteStride": 8
    },
    {
      "buffer": 0,
      "byteOffset": 490356,
      "byteLength": 66888,
      "target": 34962,
      "byteStride": 12
    },
    {
      "buffer": 0,
      "byteOffset": 557244,
      "byteLength": 54888,
      "target": 34963
    },
    {
      "buffer": 0,
      "byteOffset": 612132,
      "byteLength": 66804,
      "target": 34962,
      "byteStride": 12
    },
    {
      "buffer": 0,
      "byteOffset": 678936,
      "byteLength": 44536,
      "target": 34962,
      "byteStride": 8
    },
    {
      "buffer": 0,
      "byteOffset": 723472,
      "byteLength": 66804,
      "target": 34962,
      "byteStride": 12
    },
    {
      "buffer": 0,
      "byteOffset": 790276,
      "byteLength": 54888,
      "target": 34963
    },
    {
      "buffer": 0,
      "byteOffset": 845164,
      "byteLength": 225588,
      "target": 34962,
      "byteStride": 12
    },
    {
      "buffer": 0,
      "byteOffset": 1070752,
      "byteLength": 150392,
      "target": 34962,
      "byteStride": 8
    },
    {
      "buffer": 0,
      "byteOffset": 1221144,
      "byteLength": 225588,
      "target": 34962,
      "byteStride": 12
    },
    {
      "buffer": 0,
      "byteOffset": 1446732,
      "byteLength": 216788,
      "target": 34963
    }
  ],
  "buffers": [
    {
      "byteLength": 1663520,
      "uri": "data:application/octet-stream;base64,"
    }
  ],
  "accessors": [
    {
      "bufferView": 0,
      "componentType": 5126,
      "count": 10576,
      "max": [
        289.68841552734375,
        188.1796875,
        -14.54024887084961
      ],
      "min": [
        -299.1488037109375,
        -137.88389587402344,
        -1898.4375
      ],
      "type": "VEC3"
    },
    {
      "bufferView": 1,
      "componentType": 5126,
      "count": 10576,
      "max": [
        1,
        1,
        0.9998999834060669
      ],
      "min": [
        -1,
        -0.9998999834060669,
        -0.9994999766349792
      ],
      "type": "VEC3"
    },
    {
      "bufferView": 2,
      "componentType": 5123,
      "count": 62526,
      "max": [
        10575
      ],
      "min": [
        0
      ],
      "type": "SCALAR"
    },
    {
      "bufferView": 3,
      "componentType": 5126,
      "count": 5574,
      "max": [
        185.92550659179688,
        206.9861602783203,
        -0.6084216833114624
      ],
      "min": [
        50.074764251708984,
        -93.91371154785156,
        -130.18798828125
      ],
      "type": "VEC3"
    },
    {
      "bufferView": 4,
      "componentType": 5126,
      "count": 5574,
      "max": [
        0.9965500235557556,
        0.9980499744415283
      ],
      "min": [
        0.0019499999471008778,
        0.00195997953414917
      ],
      "type": "VEC2"
    },
    {
      "bufferView": 5,
      "componentType": 5126,
      "count": 5574,
      "max": [
        0.9972000122070312,
        0.9995999932289124,
        1
      ],
      "min": [
        -1,
        -0.9998999834060669,
        -0.9997000098228455
      ],
      "type": "VEC3"
    },
    {
      "bufferView": 6,
      "componentType": 5123,
      "count": 27444,
      "max": [
        5573
      ],
      "min": [
        0
      ],
      "type": "SCALAR"
    },
    {
      "bufferView": 7,
      "componentType": 5126,
      "count": 5567,
      "max": [
        -49.72277069091797,
        207.1353759765625,
        -0.6013072729110718
      ],
      "min": [
        -186.2198028564453,
        -93.69651794433594,
        -130.13784790039062
      ],
      "type": "VEC3"
    },
    {
      "bufferView": 8,
      "componentType": 5126,
      "count": 5567,
      "max": [
        0.9965500235557556,
        0.9980499744415283
      ],
      "min": [
        0.0019499999471008778,
        0.00195997953414917
      ],
      "type": "VEC2"
    },
    {
      "bufferView": 9,
      "componentType": 5126,
      "count": 5567,
      "max": [
        0.9998999834060669,
        0.9997000098228455,
        1
      ],
      "min": [
        -0.9991999864578247,
        -0.9993000030517578,
        -1
      ],
      "type": "VEC3"
    },
    {
      "bufferView": 10,
      "componentType": 5123,
      "count": 27444,
      "max": [
        5566
      ],
      "min": [
        0
      ],
      "type": "SCALAR"
    },
    {
      "bufferView": 11,
      "componentType": 5126,
      "count": 18799,
      "max": [
        329.3695068359375,
        167.52316284179688,
        -49.73784637451172
      ],
      "min": [
        -306.3199768066406,
        -175.76353454589844,
        -1633.0225830078125
      ],
      "type": "VEC3"
    },
    {
      "bufferView": 12,
      "componentType": 5126,
      "count": 18799,
      "max": [
        0.9859260320663452,
        0.9833135008811951
      ],
      "min": [
        0.01926558092236519,
        0.02265632152557373
      ],
      "type": "VEC2"
    },
    {
      "bufferView": 13,
      "componentType": 5126,
      "count": 18799,
      "max": [
        1,
        1,
        0.9332000017166138
      ],
      "min": [
        -0.9998999834060669,
        -1,
        -0.9422000050544739
      ],
      "type": "VEC3"
    },
    {
      "bufferView": 14,
      "componentType": 5123,
      "count": 108393,
      "max": [
        18798
      ],
      "min": [
        0
      ],
      "type": "SCALAR"
    }
  ],
  "materials": [
    {
      "pbrMetallicRoughness": {
        "baseColorFactor": [
          0.6038273388475408,
          0.6038273388475408,
          0.6038273388475408,
          1
        ],
        "metallicFactor": 0,
        "roughnessFactor": 0.995
      },
      "doubleSided": false
    },
    {
      "pbrMetallicRoughness": {
        "baseColorFactor": [
          1,
          1,
          1,
          1
        ],
        "metallicFactor": 0,
        "roughnessFactor": 0.995
      },
      "doubleSided": false
    },
    {
      "pbrMetallicRoughness": {
        "baseColorFactor": [
          1,
          1,
          1,
          1
        ],
        "metallicFactor": 0,
        "roughnessFactor": 0.995
      },
      "doubleSided": false
    },
    {
      "alphaMode": "BLEND",
      "pbrMetallicRoughness": {
        "baseColorTexture": {
          "index": 0,
          "extensions": {
            "KHR_texture_transform": {
              "offset": [
                0,
                1
              ],
              "scale": [
                1,
                -1
              ]
            }
          }
        },
        "metallicFactor": 0,
        "roughnessFactor": 0.995
      },
      "doubleSided": false
    }
  ],
  "meshes": [
    {
      "primitives": [
        {
          "mode": 4,
          "attributes": {
            "POSITION": 0,
            "NORMAL": 1
          },
          "extras": {
            "parameters": {
              "width": 588.8372192382812,
              "height": 326.06358337402344,
              "depth": 1883.8972511291504,
              "subdivisions": 0
            },
            "type": "NonParametricGeometry"
          },
          "indices": 2,
          "material": 0
        }
      ]
    },
    {
      "primitives": [
        {
          "mode": 4,
          "attributes": {
            "POSITION": 3,
            "TEXCOORD_0": 4,
            "NORMAL": 5
          },
          "extras": {
            "parameters": {
              "width": 135.8507423400879,
              "height": 300.8998718261719,
              "depth": 129.57956659793854,
              "subdivisions": 0
            },
            "type": "NonParametricGeometry"
          },
          "indices": 6,
          "material": 1
        }
      ]
    },
    {
      "primitives": [
        {
          "mode": 4,
          "attributes": {
            "POSITION": 7,
            "TEXCOORD_0": 8,
            "NORMAL": 9
          },
          "extras": {
            "parameters": {
              "width": 136.49703216552734,
              "height": 300.83189392089844,
              "depth": 129.53654062747955,
              "subdivisions": 0
            },
            "type": "NonParametricGeometry"
          },
          "indices": 10,
          "material": 2
        }
      ]
    },
    {
      "primitives": [
        {
          "mode": 4,
          "attributes": {
            "POSITION": 11,
            "TEXCOORD_0": 12,
            "NORMAL": 13
          },
          "extras": {
            "parameters": {
              "width": 635.6894836425781,
              "height": 343.2866973876953,
              "depth": 1583.2847366333008,
              "subdivisions": 0
            },
            "type": "NonParametricGeometry"
          },
          "indices": 14,
          "material": 3
        }
      ]
    }
  ],
  "textures": [
    {
      "sampler": 0,
      "source": 0
    }
  ],
  "samplers": [
    {
      "magFilter": 9729,
      "minFilter": 9729,
      "wrapS": 10497,
      "wrapT": 10497
    }
  ],
  "images": [
    {
      "mimeType": "image/png",
      "uri": "data:image/png;base64,"
    }
  ],
  "extensions": {
    "KHR_lights_punctual": {
      "lights": [
        {
          "name": "Directional Light",
          "color": [
            1,
            1,
            1
          ],
          "intensity": 0.7,
          "type": "directional"
        }
      ]
    }
  },
  "cameras": [
    {
      "type": "orthographic",
      "orthographic": {
        "xmag": 2.5297929068711253,
        "ymag": 1.2108748340700854,
        "zfar": 100000,
        "znear": 0
      }
    }
  ],
  "extensionsUsed": [
    "KHR_texture_transform",
    "KHR_lights_punctual"
  ]
}